PathFileType	3	(X/Y/Z)	walking_2__fused_aligned.trc
DataRate	CameraRate	NumFrames	NumMarkers	Units	OrigDataRate	OrigDataStartFrame	OrigNumFrames
100.0	100.0	6	19	mm	100.0	4151	6270
Frame#	Time	pelvis			neck			head			hip_left			hip_right			knee_left			knee_right			ankle_left			ankle_right			heel_left			heel_right			toe_left			toe_right			shoulder_left			shoulder_right			elbow_left			elbow_right			wrist_left			wrist_right			
		X1	Y1	Z1	X2	Y2	Z2	X3	Y3	Z3	X4	Y4	Z4	X5	Y5	Z5	X6	Y6	Z6	X7	Y7	Z7	X8	Y8	Z8	X9	Y9	Z9	X10	Y10	Z10	X11	Y11	Z11	X12	Y12	Z12	X13	Y13	Z13	X14	Y14	Z14	X15	Y15	Z15	X16	Y16	Z16	X17	Y17	Z17	X18	Y18	Z18	X19	Y19	Z19	
4151	41.50000	81.812221	942.227663	117.161183	51.795341	1497.202915	199.660781	39.848314	1582.178525	348.026284	157.938467	947.417403	120.947493	5.686171	937.037905	113.374913	151.063856	512.174286	172.958015	-58.649081	543.124614	291.383899	139.112158	98.872346	98.930009	-81.571380	231.692133	84.860805	136.174797	49.064958	63.779149	-77.339824	211.168582	38.011876	129.798677	43.432078	288.254486	-102.751262	100.195918	189.193665	232.933777	1455.439310	172.392389	-118.132903	1431.854447	146.361970	317.843952	1175.322385	132.972033	-159.007123	1142.092491	116.883294	362.692913	922.461034	192.999841	-175.967679	900.455553	204.598512
4152	41.51000	82.717517	942.587363	116.730713	52.481468	1497.490040	199.434527	39.511024	1582.853587	347.542892	158.846450	947.813911	120.896481	6.588806	937.360794	112.564987	151.755561	511.797739	166.718528	-58.736112	544.972738	297.063881	140.037701	98.589515	87.662427	-82.190801	230.960862	99.034368	137.222583	48.944292	51.985103	-77.928733	209.560278	52.982472	130.424849	41.974097	277.011904	-104.196569	102.489591	205.511685	233.868392	1455.506539	174.526863	-116.938775	1432.380319	143.936532	319.466283	1175.332023	137.898266	-157.123586	1142.627082	111.454913	362.497510	923.250166	201.978115	-176.479402	899.114256	194.673465
4153	41.52000	83.622814	942.947062	116.300242	53.167596	1497.777165	199.208273	39.173734	1583.528649	347.059501	159.754434	948.210418	120.845470	7.491440	937.683684	111.755061	152.447266	511.421192	160.479040	-58.823144	546.820862	302.743864	140.963244	98.306684	76.394845	-82.810221	230.229591	113.207930	138.270369	48.823626	40.191057	-78.517642	207.951974	67.953069	131.051022	40.516116	265.769321	-105.641876	104.783263	221.829705	234.803008	1455.573767	176.661338	-115.744647	1432.906191	141.511095	321.088613	1175.341661	142.824499	-155.240050	1143.161674	106.026532	362.302107	924.039298	210.956389	-176.991125	897.772958	184.748419
4154	41.53000	83.209364	942.889431	116.148791	52.217558	1497.742986	199.384616	37.430348	1583.671480	347.046493	159.366921	948.119532	120.854726	7.052034	937.659304	111.442915	152.066827	510.682214	154.449040	-59.384000	547.795611	306.316587	140.260835	98.545535	66.610322	-84.046796	226.995763	127.610683	137.487464	49.339110	30.068530	-79.938814	203.320154	83.355489	130.656638	39.689669	255.573963	-106.813267	105.939838	239.916512	233.960399	1455.455261	178.789577	-116.102993	1433.065479	139.922003	320.770585	1175.192188	147.817703	-155.059797	1143.485544	101.674939	360.351843	924.939869	220.273044	-178.743154	896.311781	175.519687
4155	41.54000	82.795914	942.831799	115.997340	51.267521	1497.708807	199.560958	35.686962	1583.814311	347.033484	158.979408	948.028645	120.863982	6.612628	937.634924	111.130768	151.686387	509.943236	148.419041	-59.944856	548.770360	309.889310	139.558426	98.784385	56.825799	-85.283370	223.761935	142.013436	136.704559	49.854595	19.946003	-81.359987	198.688334	98.757910	130.262254	38.863222	245.378604	-107.984658	107.096413	258.003319	233.117790	1455.336755	180.917817	-116.461339	1433.224768	138.332910	320.452556	1175.042716	152.810908	-154.879544	1143.809415	97.323346	358.401579	925.840440	229.589698	-180.495182	894.850605	166.290956
4156	41.55000	82.382464	942.774167	115.845889	50.317483	1497.674627	199.737301	33.943575	1583.957142	347.020476	158.591895	947.937759	120.873238	6.173222	937.610544	110.818621	151.305947	509.204258	142.389041	-60.505713	549.745109	313.462033	138.856016	99.023235	47.041276	-86.519945	220.528107	156.416189	135.921655	50.370079	9.823476	-82.781159	194.056514	114.160330	129.867870	38.036775	235.183246	-109.156048	108.252989	276.090127	232.275181	1455.218249	183.046057	-116.819685	1433.384056	136.743818	320.134528	1174.893243	157.804113	-154.699291	1144.133285	92.971753	356.451315	926.741010	238.906352	-182.247210	893.389429	157.062224
